<svg xmlns="http://www.w3.org/2000/svg" width="197.156" height="46.742" viewBox="0 0 197.156 46.742">
  <g id="Group_287" data-name="Group 287" transform="translate(-84 -273)">
    <g id="Group_286" data-name="Group 286" transform="translate(84 273)">
      <g id="Group_285" data-name="Group 285" transform="translate(0 0)">
        <g id="DISCOVER._VALUE._STORE._CELEBRATE." data-name="DISCOVER. VALUE. STORE. CELEBRATE." transform="translate(58.319 40.241)">
          <g id="Group_283" data-name="Group 283">
            <path id="Path_470" data-name="Path 470" d="M182.3,131.548h2.137a3.209,3.209,0,0,1,2.358.825,3.731,3.731,0,0,1,0,4.7,3.2,3.2,0,0,1-2.358.83H182.3Zm2.092,5.726q2.471,0,2.471-2.552a2.217,2.217,0,0,0-2.471-2.543h-1.353v5.1Z" transform="translate(-182.297 -131.476)"/>
            <path id="Path_471" data-name="Path 471" d="M202.1,137.9v-6.357h.739V137.9Z" transform="translate(-195.216 -131.476)"/>
            <path id="Path_472" data-name="Path 472" d="M208.354,137.039l.289-.568a3.042,3.042,0,0,0,.96.568,3.456,3.456,0,0,0,1.141.171,2,2,0,0,0,1.181-.3.972.972,0,0,0,.415-.839.7.7,0,0,0-.2-.514,1.4,1.4,0,0,0-.523-.316,7.9,7.9,0,0,0-.874-.243,8.509,8.509,0,0,1-1.213-.361,1.881,1.881,0,0,1-.766-.541,1.387,1.387,0,0,1-.293-.92,1.67,1.67,0,0,1,.284-.96,1.835,1.835,0,0,1,.811-.649,3.038,3.038,0,0,1,1.222-.23,3.584,3.584,0,0,1,1.231.208,2.66,2.66,0,0,1,.969.595l-.28.568a3.105,3.105,0,0,0-.915-.564,2.818,2.818,0,0,0-1.005-.176,1.908,1.908,0,0,0-1.159.311,1.021,1.021,0,0,0-.419.87.808.808,0,0,0,.37.721,3.515,3.515,0,0,0,1.118.415q.82.2,1.289.365a1.93,1.93,0,0,1,.78.5,1.255,1.255,0,0,1,.311.892,1.612,1.612,0,0,1-.284.947,1.812,1.812,0,0,1-.816.626,3.224,3.224,0,0,1-1.244.221A3.426,3.426,0,0,1,208.354,137.039Z" transform="translate(-199.292 -131.34)"/>
            <path id="Path_473" data-name="Path 473" d="M226.742,137.449a2.567,2.567,0,0,1-1.024-1.127,4.4,4.4,0,0,1,0-3.467,2.575,2.575,0,0,1,1.024-1.123,3.037,3.037,0,0,1,1.569-.392,3.457,3.457,0,0,1,1.208.2,2.677,2.677,0,0,1,.956.6l-.279.568a3.237,3.237,0,0,0-.9-.559,2.675,2.675,0,0,0-.974-.171,2,2,0,0,0-1.619.681,3.536,3.536,0,0,0,0,3.859,2,2,0,0,0,1.619.681,2.674,2.674,0,0,0,.974-.171,3.237,3.237,0,0,0,.9-.559l.279.568a2.664,2.664,0,0,1-.956.6,3.465,3.465,0,0,1-1.208.2A3.037,3.037,0,0,1,226.742,137.449Z" transform="translate(-210.385 -131.34)"/>
            <path id="Path_474" data-name="Path 474" d="M244.634,137.445a2.6,2.6,0,0,1-1.005-1.127,3.927,3.927,0,0,1-.352-1.722,4.031,4.031,0,0,1,.347-1.736,2.545,2.545,0,0,1,1-1.127,3.244,3.244,0,0,1,3.093,0,2.542,2.542,0,0,1,1,1.127,4.007,4.007,0,0,1,.347,1.727,3.967,3.967,0,0,1-.351,1.727,2.6,2.6,0,0,1-1.005,1.132,3.18,3.18,0,0,1-3.075,0Zm3.111-.915a3.635,3.635,0,0,0,0-3.882,2.169,2.169,0,0,0-3.151,0,3.608,3.608,0,0,0,0,3.873,2.153,2.153,0,0,0,3.147,0Z" transform="translate(-222.069 -131.34)"/>
            <path id="Path_475" data-name="Path 475" d="M267.226,131.548h.758l-2.777,6.357h-.64l-2.777-6.357h.776l2.326,5.428Z" transform="translate(-234.143 -131.476)"/>
            <path id="Path_476" data-name="Path 476" d="M282.557,137.9v-6.357h4.022v.613h-3.291v2.209H286.4v.613h-3.111v2.308h3.291v.613Z" transform="translate(-247.688 -131.476)"/>
            <path id="Path_477" data-name="Path 477" d="M303.3,137.9h-.812l-1.082-2.038a1.175,1.175,0,0,0-.464-.51,1.574,1.574,0,0,0-.726-.14h-1.19V137.9h-.73v-6.357h2.615a2.4,2.4,0,0,1,1.583.46,1.67,1.67,0,0,1,.546,1.353,1.7,1.7,0,0,1-.419,1.195,1.964,1.964,0,0,1-1.2.573,1.07,1.07,0,0,1,.428.243,1.723,1.723,0,0,1,.338.46Zm-2.453-3.3a1.69,1.69,0,0,0,1.105-.307,1.144,1.144,0,0,0,.365-.929,1.112,1.112,0,0,0-.361-.911,1.723,1.723,0,0,0-1.109-.3h-1.821V134.6Z" transform="translate(-257.952 -131.476)"/>
            <path id="Path_478" data-name="Path 478" d="M316.288,147.182h.92v.92h-.92Z" transform="translate(-269.688 -141.672)"/>
            <path id="Path_479" data-name="Path 479" d="M334.065,131.548h.758l-2.777,6.357h-.64l-2.777-6.357h.775l2.327,5.428Z" transform="translate(-277.736 -131.476)"/>
            <path id="Path_480" data-name="Path 480" d="M351.456,137.9l-.7-1.632h-3.318l-.7,1.632h-.757l2.8-6.357h.64l2.8,6.357Zm-3.76-2.245h2.8l-1.4-3.255Z" transform="translate(-289.049 -131.476)"/>
            <path id="Path_481" data-name="Path 481" d="M367.26,137.9v-6.357H368v5.726h3.183v.631Z" transform="translate(-302.933 -131.476)"/>
            <path id="Path_482" data-name="Path 482" d="M381.745,137.328a2.614,2.614,0,0,1-.64-1.912v-3.868h.731v3.931a1.931,1.931,0,0,0,.455,1.4,2.139,2.139,0,0,0,2.673,0,1.944,1.944,0,0,0,.451-1.4v-3.931h.739v3.868a2.606,2.606,0,0,1-.645,1.907,3.046,3.046,0,0,1-3.765,0Z" transform="translate(-311.962 -131.476)"/>
            <path id="Path_483" data-name="Path 483" d="M400.654,137.9v-6.357h4.022v.613h-3.291v2.209H404.5v.613h-3.111v2.308h3.291v.613Z" transform="translate(-324.713 -131.476)"/>
            <path id="Path_484" data-name="Path 484" d="M416.028,147.182h.92v.92h-.92Z" transform="translate(-334.74 -141.672)"/>
            <path id="Path_485" data-name="Path 485" d="M429.536,137.039l.288-.568a3.056,3.056,0,0,0,.961.568,3.454,3.454,0,0,0,1.14.171,2,2,0,0,0,1.181-.3.972.972,0,0,0,.415-.839.7.7,0,0,0-.2-.514,1.4,1.4,0,0,0-.523-.316,7.9,7.9,0,0,0-.875-.243,8.493,8.493,0,0,1-1.212-.361,1.879,1.879,0,0,1-.767-.541,1.386,1.386,0,0,1-.293-.92,1.675,1.675,0,0,1,.284-.96,1.838,1.838,0,0,1,.812-.649,3.038,3.038,0,0,1,1.222-.23,3.583,3.583,0,0,1,1.231.208,2.657,2.657,0,0,1,.969.595l-.279.568a3.112,3.112,0,0,0-.915-.564,2.817,2.817,0,0,0-1.005-.176,1.907,1.907,0,0,0-1.159.311,1.021,1.021,0,0,0-.419.87.808.808,0,0,0,.37.721,3.519,3.519,0,0,0,1.118.415q.821.2,1.289.365a1.934,1.934,0,0,1,.781.5,1.258,1.258,0,0,1,.311.892,1.609,1.609,0,0,1-.284.947,1.811,1.811,0,0,1-.816.626,3.227,3.227,0,0,1-1.244.221A3.425,3.425,0,0,1,429.536,137.039Z" transform="translate(-343.55 -131.34)"/>
            <path id="Path_486" data-name="Path 486" d="M447.094,137.9v-5.726h-2.209v-.631h5.176v.631h-2.218V137.9Z" transform="translate(-353.561 -131.476)"/>
            <path id="Path_487" data-name="Path 487" d="M462.524,137.445a2.6,2.6,0,0,1-1.005-1.127,3.931,3.931,0,0,1-.352-1.722,4.025,4.025,0,0,1,.347-1.736,2.541,2.541,0,0,1,1-1.127,3.244,3.244,0,0,1,3.093,0,2.546,2.546,0,0,1,1,1.127,4,4,0,0,1,.347,1.727,3.962,3.962,0,0,1-.352,1.727,2.6,2.6,0,0,1-1.005,1.132,3.18,3.18,0,0,1-3.075,0Zm3.111-.915a3.636,3.636,0,0,0,0-3.882,2.169,2.169,0,0,0-3.151,0,3.61,3.61,0,0,0,0,3.873,2.154,2.154,0,0,0,3.147,0Z" transform="translate(-364.18 -131.34)"/>
            <path id="Path_488" data-name="Path 488" d="M487.3,137.9h-.811l-1.082-2.038a1.175,1.175,0,0,0-.464-.51,1.574,1.574,0,0,0-.726-.14h-1.19V137.9h-.73v-6.357h2.615a2.4,2.4,0,0,1,1.583.46,1.67,1.67,0,0,1,.546,1.353,1.693,1.693,0,0,1-.42,1.195,1.962,1.962,0,0,1-1.195.573,1.068,1.068,0,0,1,.429.243,1.723,1.723,0,0,1,.338.46Zm-2.453-3.3a1.689,1.689,0,0,0,1.1-.307,1.144,1.144,0,0,0,.365-.929,1.112,1.112,0,0,0-.361-.911,1.723,1.723,0,0,0-1.109-.3h-1.822V134.6Z" transform="translate(-377.962 -131.476)"/>
            <path id="Path_489" data-name="Path 489" d="M500.731,137.9v-6.357h4.022v.613h-3.291v2.209h3.111v.613h-3.111v2.308h3.291v.613Z" transform="translate(-389.984 -131.476)"/>
            <path id="Path_490" data-name="Path 490" d="M516.1,147.182h.92v.92h-.92Z" transform="translate(-400.011 -141.672)"/>
          </g>
        </g>
        <g id="logo" transform="translate(0 0)">
          <g id="logo-2">
            <g id="Group_46" data-name="Group 46">
              <path id="Path_297" data-name="Path 297" d="M42.992,56.732l7.194,16.137.018.039a.32.32,0,0,0,.581-.006v-.008l3.193-7.728,3.424,7.7.018.039A.32.32,0,0,0,58,72.9v-.009l6.743-16.158c.378-.923.585-1.171,1.016-1.449a.232.232,0,0,0,.06-.047.3.3,0,0,0-.127-.019H63.135a.407.407,0,0,0-.114.012.313.313,0,0,0,.057.062c.49.378.343.863.078,1.5L58.192,68.707l-2.933-6.623,2.233-5.354a2.686,2.686,0,0,1,1.044-1.449.236.236,0,0,0,.061-.047.306.306,0,0,0-.127-.019H55.913a.4.4,0,0,0-.114.012.334.334,0,0,0,.057.062c.49.378.342.863.079,1.5l-1.482,3.5-1.54-3.5a1.158,1.158,0,0,1,.4-1.52.208.208,0,0,0,.055-.043.31.31,0,0,0-.128-.019h-4.13a.3.3,0,0,0-.127.019.211.211,0,0,0,.057.045,2.639,2.639,0,0,1,1.185,1.447l2.967,6.644L50.939,68.7l-5.277-11.91a1.156,1.156,0,0,1,.4-1.52.184.184,0,0,0,.054-.043.3.3,0,0,0-.127-.019h-4.1a.3.3,0,0,0-.128.019.2.2,0,0,0,.058.045A2.5,2.5,0,0,1,42.992,56.732Z" transform="translate(-32.318 -41.446)" fill="#e4a025"/>
              <path id="Path_298" data-name="Path 298" d="M16.17,38.06a20.6,20.6,0,0,1,39.95-7.168A21.174,21.174,0,1,0,24.9,54.97,20.694,20.694,0,0,1,16.17,38.06Z" transform="translate(-14.611 -15.633)"/>
              <path id="Path_299" data-name="Path 299" d="M54.713,35.384A18.8,18.8,0,0,1,61.8,50.163,18.184,18.184,0,0,1,25.79,54.2,18.954,18.954,0,1,0,54.713,35.384Z" transform="translate(-21.902 -28.515)" fill="#e4a025"/>
              <ellipse id="Ellipse_793" data-name="Ellipse 793" cx="0.589" cy="0.591" rx="0.589" ry="0.591" transform="translate(20.843 4.963)"/>
              <ellipse id="Ellipse_794" data-name="Ellipse 794" cx="0.589" cy="0.591" rx="0.589" ry="0.591" transform="translate(18.173 5.197)"/>
              <ellipse id="Ellipse_795" data-name="Ellipse 795" cx="0.589" cy="0.591" rx="0.589" ry="0.591" transform="translate(15.585 5.894)"/>
              <ellipse id="Ellipse_796" data-name="Ellipse 796" cx="0.589" cy="0.591" rx="0.589" ry="0.591" transform="translate(13.157 7.031)"/>
              <ellipse id="Ellipse_797" data-name="Ellipse 797" cx="0.589" cy="0.591" rx="0.589" ry="0.591" transform="translate(10.963 8.574)"/>
              <ellipse id="Ellipse_798" data-name="Ellipse 798" cx="0.589" cy="0.591" rx="0.589" ry="0.591" transform="translate(9.068 10.476)"/>
              <ellipse id="Ellipse_799" data-name="Ellipse 799" cx="0.589" cy="0.591" rx="0.589" ry="0.591" transform="translate(7.531 12.68)"/>
              <ellipse id="Ellipse_800" data-name="Ellipse 800" cx="0.589" cy="0.591" rx="0.589" ry="0.591" transform="translate(6.398 15.119)"/>
              <ellipse id="Ellipse_801" data-name="Ellipse 801" cx="0.589" cy="0.591" rx="0.589" ry="0.591" transform="translate(5.705 17.718)"/>
              <ellipse id="Ellipse_802" data-name="Ellipse 802" cx="0.589" cy="0.591" rx="0.589" ry="0.591" transform="translate(5.471 20.398)"/>
              <ellipse id="Ellipse_803" data-name="Ellipse 803" cx="0.589" cy="0.591" rx="0.589" ry="0.591" transform="translate(5.705 23.078)"/>
              <ellipse id="Ellipse_804" data-name="Ellipse 804" cx="0.589" cy="0.591" rx="0.589" ry="0.591" transform="translate(6.398 25.677)"/>
              <ellipse id="Ellipse_805" data-name="Ellipse 805" cx="0.589" cy="0.591" rx="0.589" ry="0.591" transform="translate(7.531 28.116)"/>
              <ellipse id="Ellipse_806" data-name="Ellipse 806" cx="0.589" cy="0.591" rx="0.589" ry="0.591" transform="translate(9.068 30.32)"/>
              <ellipse id="Ellipse_807" data-name="Ellipse 807" cx="0.589" cy="0.591" rx="0.589" ry="0.591" transform="translate(10.963 32.221)"/>
              <ellipse id="Ellipse_808" data-name="Ellipse 808" cx="0.589" cy="0.591" rx="0.589" ry="0.591" transform="translate(13.157 33.765)"/>
              <ellipse id="Ellipse_809" data-name="Ellipse 809" cx="0.589" cy="0.591" rx="0.589" ry="0.591" transform="translate(15.585 34.902)"/>
              <ellipse id="Ellipse_810" data-name="Ellipse 810" cx="0.589" cy="0.591" rx="0.589" ry="0.591" transform="translate(18.173 35.599)"/>
              <ellipse id="Ellipse_811" data-name="Ellipse 811" cx="0.589" cy="0.591" rx="0.589" ry="0.591" transform="translate(20.843 35.833)"/>
              <ellipse id="Ellipse_812" data-name="Ellipse 812" cx="0.589" cy="0.591" rx="0.589" ry="0.591" transform="translate(23.512 35.599)"/>
              <ellipse id="Ellipse_813" data-name="Ellipse 813" cx="0.589" cy="0.591" rx="0.589" ry="0.591" transform="translate(26.1 34.902)"/>
              <ellipse id="Ellipse_814" data-name="Ellipse 814" cx="0.589" cy="0.591" rx="0.589" ry="0.591" transform="translate(28.529 33.765)"/>
              <ellipse id="Ellipse_815" data-name="Ellipse 815" cx="0.589" cy="0.591" rx="0.589" ry="0.591" transform="translate(30.724 32.221)"/>
              <ellipse id="Ellipse_816" data-name="Ellipse 816" cx="0.589" cy="0.591" rx="0.589" ry="0.591" transform="translate(32.619 30.32)"/>
              <ellipse id="Ellipse_817" data-name="Ellipse 817" cx="0.589" cy="0.591" rx="0.589" ry="0.591" transform="translate(34.156 28.116)"/>
              <ellipse id="Ellipse_818" data-name="Ellipse 818" cx="0.589" cy="0.591" rx="0.589" ry="0.591" transform="translate(35.288 25.677)"/>
              <ellipse id="Ellipse_819" data-name="Ellipse 819" cx="0.589" cy="0.591" rx="0.589" ry="0.591" transform="translate(35.981 23.078)"/>
              <ellipse id="Ellipse_820" data-name="Ellipse 820" cx="0.589" cy="0.591" rx="0.589" ry="0.591" transform="translate(36.214 20.398)"/>
              <ellipse id="Ellipse_821" data-name="Ellipse 821" cx="0.589" cy="0.591" rx="0.589" ry="0.591" transform="translate(35.981 17.718)"/>
              <ellipse id="Ellipse_822" data-name="Ellipse 822" cx="0.589" cy="0.591" rx="0.589" ry="0.591" transform="translate(35.288 15.119)"/>
              <ellipse id="Ellipse_823" data-name="Ellipse 823" cx="0.589" cy="0.591" rx="0.589" ry="0.591" transform="translate(34.156 12.68)"/>
              <ellipse id="Ellipse_824" data-name="Ellipse 824" cx="0.589" cy="0.591" rx="0.589" ry="0.591" transform="translate(32.619 10.476)"/>
              <ellipse id="Ellipse_825" data-name="Ellipse 825" cx="0.589" cy="0.591" rx="0.589" ry="0.591" transform="translate(30.724 8.574)"/>
              <ellipse id="Ellipse_826" data-name="Ellipse 826" cx="0.589" cy="0.591" rx="0.589" ry="0.591" transform="translate(28.529 7.031)"/>
              <ellipse id="Ellipse_827" data-name="Ellipse 827" cx="0.589" cy="0.591" rx="0.589" ry="0.591" transform="translate(26.1 5.894)"/>
              <ellipse id="Ellipse_828" data-name="Ellipse 828" cx="0.589" cy="0.591" rx="0.589" ry="0.591" transform="translate(23.512 5.197)"/>
            </g>
          </g>
        </g>
        <g id="Group_284" data-name="Group 284" transform="translate(49.725 9.875)">
          <g id="g3807" transform="translate(0 0.864)">
            <path id="path3809" d="M157.6,47.076l-.016-.259c.146-.2.561-.292,1.247-.292l1.463.017.853.016.378-.016q2.067,0,2.49.064c.011.124.017.222.017.288A3.76,3.76,0,0,1,164,47.3l-1.523.066a2.058,2.058,0,0,0-.3.075.721.721,0,0,0-.06.236.776.776,0,0,0,.092.3c.087.178.163.372.237.572l1,2.787,2.383,5.962c.276.73.464,1.2.557,1.41q.445,1,1.129,2.789c.155.408.54,1.306,1.144,2.678a4.1,4.1,0,0,0,.19.409q.71-1.149,2.09-4.04a28.748,28.748,0,0,0,1.345-3.056l-.126-.319-2.7-6.164c-.351-.765-.633-1.376-.833-1.828a5.163,5.163,0,0,0-.907-1.627,4.306,4.306,0,0,0-1.7-.287l-.333-.079a.47.47,0,0,1-.131-.331.373.373,0,0,1,.14-.221c.34-.012.578-.019.719-.019l1,.034.509-.015h.87l.778-.019h.826l1.49-.029c.093,0,.239,0,.427,0l.254,0a.43.43,0,0,1,.33.112.35.35,0,0,1,.113.252.773.773,0,0,1-.065.283,4.573,4.573,0,0,1-.908.157,4.319,4.319,0,0,0-1.094.2.294.294,0,0,0-.153.249,22,22,0,0,0,1.222,3.127l1.615,3.591q.738-1.449,2-4.58a5.787,5.787,0,0,0,.54-1.9.848.848,0,0,0-.271-.606,1.753,1.753,0,0,0-.923-.249l-.33-.049-.287-.126-.016-.122a.689.689,0,0,1,.081-.26.558.558,0,0,1,.287-.14q.236-.032,2.2.033h1.075l.67.014,1.108-.014c.085.011.21.037.378.074a.357.357,0,0,1,.128.238.323.323,0,0,1-.134.275,1.414,1.414,0,0,1-.605.191,4.312,4.312,0,0,0-1.787.637,2.728,2.728,0,0,0-.707.852L175.878,51.4c-.275.782-.5,1.366-.68,1.76a6.877,6.877,0,0,1-.41.966l-.656,1.507c.12.276.314.717.589,1.334l1.632,3.787c.069.174.291.643.654,1.41s.668,1.485.912,2.144l.238-.762.032-.074.967-2.511c.335-.775.675-1.585,1.016-2.439l1.216-3.062,1.84-5.213c.189-.6.34-1.176.459-1.738l.048-.255a1.216,1.216,0,0,0,.044-.247.517.517,0,0,0-.22-.406,5.748,5.748,0,0,0-1.562-.5,1.071,1.071,0,0,1-.254-.142,1.308,1.308,0,0,1-.049-.3l.016-.106c.443-.023.723-.033.837-.033l1.216.033,1.376-.016h1.184l.475.031.017.162a2.639,2.639,0,0,1-.034.341,9.579,9.579,0,0,0-1.414.633,1.589,1.589,0,0,0-.427.409,9.154,9.154,0,0,0-.562,1.2c-.031.063-.361,1.009-1,2.841a7.561,7.561,0,0,0-.427,1.085c-.044.13-.135.351-.27.681l-.254.632-.172.452q-1.055,2.879-2.3,6.017l-1.718,4.732-.682,1.8a1.914,1.914,0,0,1-.356.047c-.07,0-.172,0-.3-.015q-.2-.583-.908-2.221-1.812-4.148-3.266-6.89l-.184.314q-.794,1.537-1.912,4.072l-1.215,2.505a13.237,13.237,0,0,1-1.211,2.221l-.794.033-2.56-6.278-2.117-4.98-1.864-4.721c-.129-.308-.236-.6-.333-.874-.076-.2-.141-.406-.206-.615-.1-.331-.4-1.076-.885-2.238a1.325,1.325,0,0,0-.914-.588,4.835,4.835,0,0,1-.928-.254" transform="translate(-157.586 -46.514)"/>
          </g>
          <g id="g3811" transform="translate(27.524 8.102)">
            <path id="path3813" d="M243.72,80.093a4.557,4.557,0,0,0,2.321-.648,4.48,4.48,0,0,0,1.782-2.08,7.774,7.774,0,0,0,.664-3.312,9.722,9.722,0,0,0-.513-2.856,4.759,4.759,0,0,0-1.587-2.44,4.01,4.01,0,0,0-2.511-.815,5.13,5.13,0,0,0-2.129.49,4.07,4.07,0,0,0-1.842,1.88,8.42,8.42,0,0,0-.751,3.949,6.393,6.393,0,0,0,1.308,4.352,4.16,4.16,0,0,0,3.257,1.48m-6.994-6.164a6.735,6.735,0,0,1,.449-2.3,6.784,6.784,0,0,1,3.31-3.641,8.363,8.363,0,0,1,3.51-.664,6.832,6.832,0,0,1,6.925,6.892,6.073,6.073,0,0,1-2.08,4.509,7.3,7.3,0,0,1-5.255,1.982,7.145,7.145,0,0,1-3.7-1.025,6.669,6.669,0,0,1-2.227-2.289,6.5,6.5,0,0,1-.934-3.464" transform="translate(-236.726 -67.324)"/>
          </g>
          <g id="g3815" transform="translate(43.478 7.389)">
            <path id="path3817" d="M282.664,79.08l-.064-.21a.736.736,0,0,1,.146-.341l.935-.189L285,78.1a.438.438,0,0,0,.221-.223,4.2,4.2,0,0,0,.1-1.227q0-5.418-.064-6.258a1.872,1.872,0,0,0-.281-1.06,2.327,2.327,0,0,0-1.134-.35,3.642,3.642,0,0,1-.854-.2l.065-.471a9.057,9.057,0,0,0,2.226-1.167,5.888,5.888,0,0,0,1.339-1.863l.525.015q.089.787.091,3.5l-.016.268a2.051,2.051,0,0,0,.032.3,9.418,9.418,0,0,1,1.513-2.007l.367-.363a2.538,2.538,0,0,1,.432-.4,3.812,3.812,0,0,1,1.653-.664,1.5,1.5,0,0,1,1.145.471,1.587,1.587,0,0,1,.448,1.145,1.116,1.116,0,0,1-.318.844,1.417,1.417,0,0,1-.988.395,3.714,3.714,0,0,1-1-.276,3.852,3.852,0,0,0-.989-.275.989.989,0,0,0-.621.145,5.236,5.236,0,0,0-1.08,1.431,2.918,2.918,0,0,0-.5,1.5l.081,2.63.033,3.167a2.629,2.629,0,0,0,.125.7.977.977,0,0,0,.317.269c1.14.1,1.815.169,2.027.212.145.011.254.021.329.032a1.9,1.9,0,0,1,.95.188.259.259,0,0,1,.14.239.484.484,0,0,1-.124.249l-1.761-.032-.665-.018-.961.018h-1.615l-.869.063Z" transform="translate(-282.6 -65.274)"/>
          </g>
          <g id="g3819" transform="translate(55.226 5.445)">
            <path id="path3821" d="M319.974,59.684l.486.016.065,1.5-.033,1.939c.206.011.336.016.39.016.28,0,.81-.022,1.6-.063.5-.033.989-.049,1.453-.049.215,0,.534,0,.966.016.021.205.033.372.033.491a3.293,3.293,0,0,1-.1.633h-.275l-2.49.075-1.237.032-.292.031a3,3,0,0,0-.129.92l.048,2.382-.032,4.191A3.809,3.809,0,0,0,320.86,74a1.475,1.475,0,0,0,1.258.556,9.272,9.272,0,0,0,1.578-.251,2.947,2.947,0,0,0,.95-.527h.14a.3.3,0,0,1,.324.315l-.016.111a4.126,4.126,0,0,1-1.565,1.081,6.593,6.593,0,0,1-2.344.342,2.886,2.886,0,0,1-1.707-.475,2.128,2.128,0,0,1-.865-1.129,12.705,12.705,0,0,1-.195-2.843l.066-3.567-.018-1.719v-.638c0-.292-.009-.588-.03-.887l-.271-.014-1.307.043-.129.014a.391.391,0,0,1-.265-.075.226.226,0,0,1-.086-.182.38.38,0,0,1,.119-.294,2.883,2.883,0,0,1,.707-.356,3.647,3.647,0,0,0,.95-.654,5.116,5.116,0,0,0,.914-1.064A9.325,9.325,0,0,0,319.6,60.6c.163-.433.292-.735.373-.913" transform="translate(-316.378 -59.684)"/>
          </g>
          <g id="g3823" transform="translate(64.282)">
            <path id="path3825" d="M342.548,64.671a10.83,10.83,0,0,0,2.144-.5c.114-.074.173-.242.173-.508l-.016-1.042.016-1.843-.033-4.7.018-1.75V53.074l.049-1.527c0-2.4-.028-3.829-.07-4.3a1.435,1.435,0,0,0-.281-.875,5.462,5.462,0,0,0-2.1-.755v-.078a2.34,2.34,0,0,1,.032-.312c.147-.022.293-.048.427-.081a2.392,2.392,0,0,1,.394-.064,12.3,12.3,0,0,0,2.745-1.054h.777c.022.3.033,1.225.033,2.8l-.017,2.007.017,2.592-.064,3.193c0,.191.01.4.031.633a14.728,14.728,0,0,1,1.459-1.545,7.306,7.306,0,0,1,1.76-1.06,5.081,5.081,0,0,1,1.965-.386,3.824,3.824,0,0,1,3.193,1.646,4.541,4.541,0,0,1,.713,2.738l-.049,1.615.017.9-.065,1.566c-.044,1.3-.065,2.067-.065,2.312,0,.276.011.641.032,1.106l.886.206a13.9,13.9,0,0,1,1.367.351l-.016.485-3.344-.1c-.189,0-.7.021-1.544.063-.513.023-.81.033-.892.033H351.9a.482.482,0,0,1-.081-.232v-.141a1.28,1.28,0,0,1,.827-.372l.948-.223a.582.582,0,0,0,.223-.327c.043-.276.087-1.644.141-4.09l.032-1.171a10.157,10.157,0,0,0-.286-3.079,2.24,2.24,0,0,0-1.01-1.34,3.33,3.33,0,0,0-1.816-.5,3.693,3.693,0,0,0-1.619.362,6.309,6.309,0,0,0-1.253.933,5.634,5.634,0,0,0-1.021,1.14A2.152,2.152,0,0,0,346.8,57.2l.016,1.1-.033,1.151c0,.091.017.749.048,1.971l-.015,1,.031,1.108a1.8,1.8,0,0,0,.049.347l2.22.534a4.113,4.113,0,0,1,.518.2l.048.182a.788.788,0,0,1-.081.264c-.3.011-.535.016-.691.016l-1.236-.016-2.722.034-2.036.032c-.108-.011-.265-.021-.475-.032l-.016-.11a.6.6,0,0,1,.129-.313" transform="translate(-342.419 -44.028)"/>
          </g>
          <g id="g3827" transform="translate(80.949 0.584)">
            <path id="path3829" d="M390.439,45.95a2.814,2.814,0,0,1,.363-.049c.356,0,.944.034,1.771.1.432.017.725.029.88.029.232,0,.724-.023,1.474-.066l2.686-.161c.707-.063,1.527-.1,2.468-.1a9.219,9.219,0,0,1,3.948.708,4.937,4.937,0,0,1,2.269,2.2,6.32,6.32,0,0,1,.8,2.993,5.945,5.945,0,0,1-1.739,4.283,6.2,6.2,0,0,1-4.682,1.8,4.7,4.7,0,0,1-1.376-.167,4.75,4.75,0,0,1-1.269-.643.821.821,0,0,1-.363-.427.4.4,0,0,1,.173-.156,1.191,1.191,0,0,1,.46.1,4.1,4.1,0,0,0,1.361.191,4.834,4.834,0,0,0,2.365-.614,4.081,4.081,0,0,0,1.685-1.76,5.319,5.319,0,0,0,.568-2.409,5.179,5.179,0,0,0-.6-2.4,5.085,5.085,0,0,0-1.577-1.862,4.822,4.822,0,0,0-1.69-.665,8.415,8.415,0,0,0-1.771-.274,5.191,5.191,0,0,0-2.317.288l-.016.223.048,1.788-.016.317c-.021.286-.032.725-.032,1.313q0,3.233.092,4.023v.887l.2,7.243c0,.1-.011.295-.039.582s-.042.535-.042.747a3.877,3.877,0,0,0,.13,1.155c.247.076.987.248,2.2.524.567.134.875.211.929.233a.451.451,0,0,1,.22.2.547.547,0,0,1-.166.305.764.764,0,0,1-.4.069c-.124,0-.421-.027-.885-.081a20.63,20.63,0,0,0-2.128-.146l-2.776.146-1.658-.06c-.1,0-.41.017-.914.043l-.015-.42,2.046-.4a1.385,1.385,0,0,0,.617-.286,1.7,1.7,0,0,0,.156-.875c0-.092.006-.3.017-.616.01-.222.015-.529.015-.924q0-1.87-.14-7.976-.057-2.854-.054-5.8v-.27c0-.761-.119-1.243-.351-1.442a6.463,6.463,0,0,0-2.938-.859.744.744,0,0,1-.082-.291.672.672,0,0,1,.1-.308" transform="translate(-390.342 -45.706)"/>
          </g>
          <g id="g3831" transform="translate(98.492 8.102)">
            <path id="path3833" d="M447.778,80.093a4.564,4.564,0,0,0,2.323-.648,4.483,4.483,0,0,0,1.783-2.08,7.779,7.779,0,0,0,.665-3.312,9.731,9.731,0,0,0-.515-2.856,4.762,4.762,0,0,0-1.587-2.44,4.015,4.015,0,0,0-2.513-.815,5.126,5.126,0,0,0-2.128.49,4.073,4.073,0,0,0-1.841,1.88,8.438,8.438,0,0,0-.75,3.949,6.4,6.4,0,0,0,1.306,4.352,4.16,4.16,0,0,0,3.257,1.48m-6.994-6.164a6.752,6.752,0,0,1,.449-2.3,6.8,6.8,0,0,1,3.311-3.641,8.363,8.363,0,0,1,3.509-.664,6.832,6.832,0,0,1,6.924,6.892,6.076,6.076,0,0,1-2.079,4.509,7.3,7.3,0,0,1-5.255,1.982,7.158,7.158,0,0,1-3.7-1.025,6.67,6.67,0,0,1-2.224-2.289,6.5,6.5,0,0,1-.935-3.464" transform="translate(-440.784 -67.324)"/>
          </g>
          <g id="g3835" transform="translate(113.863 0.324)">
            <path id="path3837" d="M485.888,54.456l.016-.472a11.05,11.05,0,0,0,1.124-.35,5.044,5.044,0,0,0,1.215-.778,5.48,5.48,0,0,0,1.07-1.171,1.934,1.934,0,0,1,.3-.033l.193.016c.045.51.065.883.065,1.113,0,.049-.01.288-.032.715v.835l.016,4.571-.049,4.84a1.216,1.216,0,0,0,.19.819,3.019,3.019,0,0,0,1.214.512c.423.121.735.218.947.3a.5.5,0,0,1,.047.19.478.478,0,0,1-.08.232c-.411-.01-.946-.038-1.588-.081-.885-.075-1.468-.114-1.756-.114q-.2,0-2.543.065c-.32.011-.627.033-.924.066a.878.878,0,0,1-.254-.055.4.4,0,0,1-.082-.209.431.431,0,0,1,.3-.385c.043-.02.577-.141,1.615-.361a1,1,0,0,0,.665-.314,1.677,1.677,0,0,0,.27-1.054q.031-1.205.032-6.626a5.436,5.436,0,0,0-.1-1.35,1.214,1.214,0,0,0-.422-.427,4.6,4.6,0,0,0-1.459-.5m1.362-8.221a1.2,1.2,0,0,1,.4-.9,1.344,1.344,0,0,1,.962-.378,1.415,1.415,0,0,1,1.021.427,1.255,1.255,0,0,1,.438.907,1.288,1.288,0,0,1-.438.923,1.416,1.416,0,0,1-1.021.434,1.3,1.3,0,0,1-.967-.395,1.362,1.362,0,0,1-.393-1.021" transform="translate(-484.98 -44.96)"/>
          </g>
          <g id="g3839" transform="translate(121.851 7.713)">
            <path id="path3841" d="M508,79.04a6.58,6.58,0,0,1,.914-.191,2.764,2.764,0,0,0,1.192-.336,1.3,1.3,0,0,0,.194-.868l.032-.572c.011-.211.017-.481.017-.811l-.033-4.865a2.121,2.121,0,0,0-.254-1.27,2.767,2.767,0,0,0-1.577-.616v-.567a4.657,4.657,0,0,0,1.745-.819,5.585,5.585,0,0,0,1.5-1.919l.551.018c.032.5.049.857.049,1.068v1.057l.017.288c.123-.082.274-.19.442-.314a9.911,9.911,0,0,1,1.956-1.167,9.227,9.227,0,0,1,1.782-.627,4.358,4.358,0,0,1,1.113-.13,3.64,3.64,0,0,1,2.235.7,3.152,3.152,0,0,1,1.216,1.642,15.863,15.863,0,0,1,.281,3.754v2.391c0,.066-.011.276-.028.633s-.023.772-.023,1.236a6.083,6.083,0,0,0,.1,1.415.931.931,0,0,0,.4.412,3.678,3.678,0,0,1,1.767.491v.124a1.079,1.079,0,0,1-.1.4h-.3l-2.095-.033-2.07.049c-.761.02-1.469.014-2.112-.016l-.1-.369a.637.637,0,0,1,.107-.281,3.961,3.961,0,0,1,1.205-.255,2.641,2.641,0,0,0,.632-.093,1.938,1.938,0,0,0,.427-.251,1.54,1.54,0,0,0,.188-.633c0-.075-.01-.221-.032-.443-.032-.483-.055-1.684-.065-3.613v-.821l.033-1.266a3.81,3.81,0,0,0-.821-2.807,3.077,3.077,0,0,0-2.2-.771,4.864,4.864,0,0,0-2.07.469,6.979,6.979,0,0,0-1.96,1.4c-.022.508-.033.942-.033,1.3l.049,3.489c0,1.828.027,2.938.08,3.348a.744.744,0,0,0,.109.353,1.158,1.158,0,0,0,.508.2c.255.047.545.124.874.22s.552.154.66.174a.6.6,0,0,1,.427.326l-.016.324h-1.653l-3.393-.033h-1.89l-.033-.206A1.464,1.464,0,0,1,508,79.04" transform="translate(-507.949 -66.205)"/>
          </g>
          <g id="g3843" transform="translate(138.698 5.445)">
            <path id="path3845" d="M559.985,59.684l.488.016.064,1.5-.033,1.939c.206.011.336.016.389.016.281,0,.811-.022,1.6-.063.5-.033.989-.049,1.453-.049.215,0,.534,0,.966.016.022.205.033.372.033.491a3.322,3.322,0,0,1-.1.633h-.276l-2.489.075-1.237.032-.291.031a2.942,2.942,0,0,0-.13.92l.05,2.382-.034,4.191A3.821,3.821,0,0,0,560.871,74a1.478,1.478,0,0,0,1.258.556,9.3,9.3,0,0,0,1.578-.251,2.968,2.968,0,0,0,.952-.527h.14a.329.329,0,0,1,.237.086.335.335,0,0,1,.086.229l-.016.111a4.125,4.125,0,0,1-1.566,1.081,6.6,6.6,0,0,1-2.345.342,2.886,2.886,0,0,1-1.706-.475,2.12,2.12,0,0,1-.864-1.129,12.618,12.618,0,0,1-.2-2.843l.066-3.567-.016-1.719v-.638c0-.292-.011-.588-.032-.887l-.271-.014-1.308.043-.128.014a.392.392,0,0,1-.265-.075.226.226,0,0,1-.087-.182.381.381,0,0,1,.119-.294,2.9,2.9,0,0,1,.707-.356,3.694,3.694,0,0,0,.95-.654,5.122,5.122,0,0,0,.913-1.064,9.39,9.39,0,0,0,.535-1.193c.162-.433.291-.735.372-.913" transform="translate(-556.389 -59.684)"/>
          </g>
        </g>
      </g>
    </g>
  </g>
</svg>
