<svg xmlns="http://www.w3.org/2000/svg" width="188.991" height="40.082" viewBox="0 0 188.991 40.082">
  <g id="Group_292" data-name="Group 292" transform="translate(-14.611 -15.633)">
    <g id="logo" transform="translate(14.611 15.633)">
      <g id="logo-2" transform="translate(0)">
        <g id="Group_46" data-name="Group 46">
          <path id="Path_297" data-name="Path 297" d="M42.941,56.669l6.9,15.468.017.037a.306.306,0,0,0,.557-.006v-.008l3.061-7.408,3.282,7.383.017.037a.306.306,0,0,0,.557-.006V72.16L63.791,56.67c.362-.884.561-1.123.974-1.389a.223.223,0,0,0,.058-.045.287.287,0,0,0-.122-.018H62.25a.39.39,0,0,0-.109.011.3.3,0,0,0,.055.06c.47.362.329.827.075,1.441L57.511,68.148,54.7,61.8l2.141-5.132a2.575,2.575,0,0,1,1-1.389.226.226,0,0,0,.059-.045.293.293,0,0,0-.122-.018H55.327a.378.378,0,0,0-.109.012.32.32,0,0,0,.055.06c.47.362.327.827.076,1.441l-1.42,3.352-1.476-3.351a1.11,1.11,0,0,1,.384-1.457.2.2,0,0,0,.053-.041.3.3,0,0,0-.123-.018H48.807a.286.286,0,0,0-.122.018.2.2,0,0,0,.055.043,2.529,2.529,0,0,1,1.136,1.387l2.844,6.369-2.161,5.116L45.5,56.729a1.108,1.108,0,0,1,.384-1.457.177.177,0,0,0,.052-.041.286.286,0,0,0-.122-.018H41.883a.29.29,0,0,0-.123.018.2.2,0,0,0,.056.043A2.4,2.4,0,0,1,42.941,56.669Z" transform="translate(-32.709 -42.016)" fill="#e4a025"/>
          <path id="Path_298" data-name="Path 298" d="M16.106,37.132a19.748,19.748,0,0,1,38.3-6.871A20.3,20.3,0,1,0,24.473,53.342,19.837,19.837,0,0,1,16.106,37.132Z" transform="translate(-14.611 -15.633)"/>
          <path id="Path_299" data-name="Path 299" d="M53.515,35.384a18.023,18.023,0,0,1,6.794,14.167A17.431,17.431,0,0,1,25.79,53.42,18.169,18.169,0,1,0,53.515,35.384Z" transform="translate(-22.063 -28.799)" fill="#e4a025"/>
          <ellipse id="Ellipse_793" data-name="Ellipse 793" cx="0.565" cy="0.567" rx="0.565" ry="0.567" transform="translate(19.98 4.757)"/>
          <ellipse id="Ellipse_794" data-name="Ellipse 794" cx="0.565" cy="0.567" rx="0.565" ry="0.567" transform="translate(17.421 4.982)"/>
          <ellipse id="Ellipse_795" data-name="Ellipse 795" cx="0.565" cy="0.567" rx="0.565" ry="0.567" transform="translate(14.94 5.649)"/>
          <ellipse id="Ellipse_796" data-name="Ellipse 796" cx="0.565" cy="0.567" rx="0.565" ry="0.567" transform="translate(12.612 6.74)"/>
          <ellipse id="Ellipse_797" data-name="Ellipse 797" cx="0.565" cy="0.567" rx="0.565" ry="0.567" transform="translate(10.509 8.219)"/>
          <ellipse id="Ellipse_798" data-name="Ellipse 798" cx="0.565" cy="0.567" rx="0.565" ry="0.567" transform="translate(8.692 10.042)"/>
          <ellipse id="Ellipse_799" data-name="Ellipse 799" cx="0.565" cy="0.567" rx="0.565" ry="0.567" transform="translate(7.219 12.155)"/>
          <ellipse id="Ellipse_800" data-name="Ellipse 800" cx="0.565" cy="0.567" rx="0.565" ry="0.567" transform="translate(6.133 14.493)"/>
          <ellipse id="Ellipse_801" data-name="Ellipse 801" cx="0.565" cy="0.567" rx="0.565" ry="0.567" transform="translate(5.468 16.984)"/>
          <ellipse id="Ellipse_802" data-name="Ellipse 802" cx="0.565" cy="0.567" rx="0.565" ry="0.567" transform="translate(5.245 19.553)"/>
          <ellipse id="Ellipse_803" data-name="Ellipse 803" cx="0.565" cy="0.567" rx="0.565" ry="0.567" transform="translate(5.468 22.122)"/>
          <ellipse id="Ellipse_804" data-name="Ellipse 804" cx="0.565" cy="0.567" rx="0.565" ry="0.567" transform="translate(6.133 24.614)"/>
          <ellipse id="Ellipse_805" data-name="Ellipse 805" cx="0.565" cy="0.567" rx="0.565" ry="0.567" transform="translate(7.219 26.951)"/>
          <ellipse id="Ellipse_806" data-name="Ellipse 806" cx="0.565" cy="0.567" rx="0.565" ry="0.567" transform="translate(8.692 29.064)"/>
          <ellipse id="Ellipse_807" data-name="Ellipse 807" cx="0.565" cy="0.567" rx="0.565" ry="0.567" transform="translate(10.509 30.887)"/>
          <ellipse id="Ellipse_808" data-name="Ellipse 808" cx="0.565" cy="0.567" rx="0.565" ry="0.567" transform="translate(12.612 32.367)"/>
          <ellipse id="Ellipse_809" data-name="Ellipse 809" cx="0.565" cy="0.567" rx="0.565" ry="0.567" transform="translate(14.94 33.457)"/>
          <ellipse id="Ellipse_810" data-name="Ellipse 810" cx="0.565" cy="0.567" rx="0.565" ry="0.567" transform="translate(17.421 34.125)"/>
          <ellipse id="Ellipse_811" data-name="Ellipse 811" cx="0.565" cy="0.567" rx="0.565" ry="0.567" transform="translate(19.98 34.349)"/>
          <ellipse id="Ellipse_812" data-name="Ellipse 812" cx="0.565" cy="0.567" rx="0.565" ry="0.567" transform="translate(22.539 34.125)"/>
          <ellipse id="Ellipse_813" data-name="Ellipse 813" cx="0.565" cy="0.567" rx="0.565" ry="0.567" transform="translate(25.019 33.457)"/>
          <ellipse id="Ellipse_814" data-name="Ellipse 814" cx="0.565" cy="0.567" rx="0.565" ry="0.567" transform="translate(27.348 32.367)"/>
          <ellipse id="Ellipse_815" data-name="Ellipse 815" cx="0.565" cy="0.567" rx="0.565" ry="0.567" transform="translate(29.452 30.887)"/>
          <ellipse id="Ellipse_816" data-name="Ellipse 816" cx="0.565" cy="0.567" rx="0.565" ry="0.567" transform="translate(31.268 29.064)"/>
          <ellipse id="Ellipse_817" data-name="Ellipse 817" cx="0.565" cy="0.567" rx="0.565" ry="0.567" transform="translate(32.741 26.951)"/>
          <ellipse id="Ellipse_818" data-name="Ellipse 818" cx="0.565" cy="0.567" rx="0.565" ry="0.567" transform="translate(33.826 24.614)"/>
          <ellipse id="Ellipse_819" data-name="Ellipse 819" cx="0.565" cy="0.567" rx="0.565" ry="0.567" transform="translate(34.491 22.122)"/>
          <ellipse id="Ellipse_820" data-name="Ellipse 820" cx="0.565" cy="0.567" rx="0.565" ry="0.567" transform="translate(34.715 19.553)"/>
          <ellipse id="Ellipse_821" data-name="Ellipse 821" cx="0.565" cy="0.567" rx="0.565" ry="0.567" transform="translate(34.491 16.984)"/>
          <ellipse id="Ellipse_822" data-name="Ellipse 822" cx="0.565" cy="0.567" rx="0.565" ry="0.567" transform="translate(33.826 14.493)"/>
          <ellipse id="Ellipse_823" data-name="Ellipse 823" cx="0.565" cy="0.567" rx="0.565" ry="0.567" transform="translate(32.741 12.155)"/>
          <ellipse id="Ellipse_824" data-name="Ellipse 824" cx="0.565" cy="0.567" rx="0.565" ry="0.567" transform="translate(31.268 10.042)"/>
          <ellipse id="Ellipse_825" data-name="Ellipse 825" cx="0.565" cy="0.567" rx="0.565" ry="0.567" transform="translate(29.452 8.219)"/>
          <ellipse id="Ellipse_826" data-name="Ellipse 826" cx="0.565" cy="0.567" rx="0.565" ry="0.567" transform="translate(27.348 6.74)"/>
          <ellipse id="Ellipse_827" data-name="Ellipse 827" cx="0.565" cy="0.567" rx="0.565" ry="0.567" transform="translate(25.019 5.649)"/>
          <ellipse id="Ellipse_828" data-name="Ellipse 828" cx="0.565" cy="0.567" rx="0.565" ry="0.567" transform="translate(22.539 4.982)"/>
        </g>
      </g>
    </g>
    <g id="Group_291" data-name="Group 291" transform="translate(62.276 25.099)">
      <g id="g3807" transform="translate(0 0.829)">
        <path id="path3809" d="M157.6,47.053l-.016-.248c.14-.188.538-.28,1.2-.28l1.4.016.818.016.363-.016q1.981,0,2.387.061c.01.119.016.213.016.276a3.6,3.6,0,0,1-.032.392l-1.46.063a1.974,1.974,0,0,0-.29.072.691.691,0,0,0-.057.226.744.744,0,0,0,.088.292c.083.17.156.357.227.549l.957,2.671,2.284,5.716c.265.7.445,1.151.534,1.351q.427.955,1.082,2.673c.149.391.517,1.252,1.1,2.567a3.942,3.942,0,0,0,.182.392q.681-1.1,2-3.873a27.566,27.566,0,0,0,1.289-2.929l-.12-.306-2.588-5.909c-.336-.734-.607-1.319-.8-1.753a4.951,4.951,0,0,0-.869-1.56,4.128,4.128,0,0,0-1.626-.275l-.319-.075a.451.451,0,0,1-.125-.317.358.358,0,0,1,.134-.212c.326-.012.554-.018.689-.018l.957.032.488-.014h.834l.745-.018h.792l1.429-.028c.089,0,.229,0,.409,0l.243,0a.412.412,0,0,1,.316.107.335.335,0,0,1,.109.242.74.74,0,0,1-.062.271,4.383,4.383,0,0,1-.87.151,4.141,4.141,0,0,0-1.049.19.282.282,0,0,0-.146.239,21.1,21.1,0,0,0,1.171,3l1.548,3.442q.707-1.389,1.916-4.391a5.547,5.547,0,0,0,.517-1.826.813.813,0,0,0-.259-.581,1.68,1.68,0,0,0-.885-.239l-.316-.047-.275-.12-.015-.117a.661.661,0,0,1,.077-.249.535.535,0,0,1,.275-.134q.226-.031,2.112.032h1.03l.642.014,1.063-.014c.082.011.2.035.362.071a.343.343,0,0,1,.123.228.309.309,0,0,1-.128.263,1.355,1.355,0,0,1-.58.183,4.134,4.134,0,0,0-1.713.61,2.615,2.615,0,0,0-.678.817l-1.109,2.47c-.264.749-.48,1.31-.651,1.688a6.59,6.59,0,0,1-.393.926l-.628,1.444c.115.264.3.688.565,1.279l1.564,3.63c.066.167.279.616.627,1.351s.64,1.424.874,2.056l.228-.731.031-.071.927-2.407c.321-.743.647-1.519.973-2.338l1.166-2.935,1.764-5c.181-.576.326-1.128.44-1.666l.046-.244a1.166,1.166,0,0,0,.042-.237.5.5,0,0,0-.211-.389,5.51,5.51,0,0,0-1.5-.475,1.026,1.026,0,0,1-.243-.136,1.254,1.254,0,0,1-.047-.291l.015-.1c.425-.022.693-.032.8-.032l1.166.032L184,46.54h1.135l.455.029.017.156a2.528,2.528,0,0,1-.032.327,9.184,9.184,0,0,0-1.355.607,1.523,1.523,0,0,0-.41.392,8.775,8.775,0,0,0-.539,1.15c-.03.061-.346.967-.957,2.723a7.247,7.247,0,0,0-.409,1.04c-.042.124-.13.337-.259.653l-.244.605-.165.433q-1.011,2.76-2.205,5.768l-1.647,4.536-.653,1.724a1.835,1.835,0,0,1-.342.045c-.067,0-.165,0-.289-.014q-.194-.559-.871-2.129-1.737-3.976-3.13-6.605l-.176.3q-.761,1.474-1.833,3.9l-1.165,2.4a12.688,12.688,0,0,1-1.161,2.129l-.761.032-2.454-6.018-2.03-4.774-1.787-4.525c-.123-.3-.226-.574-.319-.838-.073-.192-.135-.389-.2-.589-.1-.318-.383-1.031-.848-2.146a1.27,1.27,0,0,0-.876-.564,4.633,4.633,0,0,1-.89-.243" transform="translate(-157.586 -46.514)"/>
      </g>
      <g id="g3811" transform="translate(26.384 7.767)">
        <path id="path3813" d="M243.431,79.564a4.368,4.368,0,0,0,2.225-.621,4.3,4.3,0,0,0,1.709-1.994A7.453,7.453,0,0,0,248,73.774a9.319,9.319,0,0,0-.492-2.738,4.561,4.561,0,0,0-1.522-2.339,3.844,3.844,0,0,0-2.407-.781,4.918,4.918,0,0,0-2.041.469,3.9,3.9,0,0,0-1.766,1.8,8.071,8.071,0,0,0-.72,3.786,6.128,6.128,0,0,0,1.254,4.172,3.988,3.988,0,0,0,3.122,1.419m-6.7-5.909a6.456,6.456,0,0,1,.43-2.2,6.5,6.5,0,0,1,3.173-3.49,8.017,8.017,0,0,1,3.365-.637,6.55,6.55,0,0,1,6.638,6.606,5.822,5.822,0,0,1-1.994,4.322,7,7,0,0,1-5.037,1.9,6.849,6.849,0,0,1-3.545-.982,6.392,6.392,0,0,1-2.134-2.195,6.234,6.234,0,0,1-.9-3.321" transform="translate(-236.726 -67.324)"/>
      </g>
      <g id="g3815" transform="translate(41.678 7.083)">
        <path id="path3817" d="M282.662,78.508l-.062-.2a.706.706,0,0,1,.14-.327l.9-.181,1.268-.232a.419.419,0,0,0,.212-.213,4.024,4.024,0,0,0,.094-1.176q0-5.194-.061-6a1.8,1.8,0,0,0-.27-1.016,2.23,2.23,0,0,0-1.087-.335,3.493,3.493,0,0,1-.819-.2l.062-.452a8.682,8.682,0,0,0,2.134-1.119,5.644,5.644,0,0,0,1.283-1.786l.5.014q.086.755.087,3.352l-.015.257a1.964,1.964,0,0,0,.031.285,9.028,9.028,0,0,1,1.45-1.924l.352-.348a2.431,2.431,0,0,1,.414-.379,3.654,3.654,0,0,1,1.585-.637,1.44,1.44,0,0,1,1.1.451,1.522,1.522,0,0,1,.429,1.1,1.07,1.07,0,0,1-.305.809,1.358,1.358,0,0,1-.947.378,3.56,3.56,0,0,1-.957-.265,3.693,3.693,0,0,0-.948-.264.948.948,0,0,0-.6.139,5.018,5.018,0,0,0-1.035,1.372,2.8,2.8,0,0,0-.476,1.434l.077,2.521.031,3.035a2.521,2.521,0,0,0,.119.672.936.936,0,0,0,.3.258c1.093.093,1.74.162,1.943.2.139.011.243.02.316.031a1.823,1.823,0,0,1,.911.181.248.248,0,0,1,.134.229.464.464,0,0,1-.119.238l-1.688-.031-.637-.017-.921.017h-1.548l-.833.06Z" transform="translate(-282.6 -65.274)"/>
      </g>
      <g id="g3819" transform="translate(52.939 5.219)">
        <path id="path3821" d="M319.826,59.684l.466.015.062,1.435-.032,1.858c.2.011.322.015.373.015.268,0,.776-.021,1.532-.061.482-.032.948-.047,1.393-.047.206,0,.512,0,.926.015.02.2.032.357.032.471a3.161,3.161,0,0,1-.093.607h-.263l-2.387.072-1.186.031-.28.03a2.88,2.88,0,0,0-.124.882l.046,2.283-.031,4.018a3.651,3.651,0,0,0,.414,2.1,1.414,1.414,0,0,0,1.206.533,8.889,8.889,0,0,0,1.513-.241,2.826,2.826,0,0,0,.911-.5h.134a.285.285,0,0,1,.311.3l-.015.106a3.955,3.955,0,0,1-1.5,1.036,6.321,6.321,0,0,1-2.247.327,2.767,2.767,0,0,1-1.637-.456,2.04,2.04,0,0,1-.829-1.082,12.182,12.182,0,0,1-.187-2.725l.063-3.419-.017-1.648v-.611c0-.28-.009-.564-.029-.85l-.259-.014-1.253.041-.124.014a.375.375,0,0,1-.254-.072.216.216,0,0,1-.083-.174.364.364,0,0,1,.114-.281,2.764,2.764,0,0,1,.677-.341,3.5,3.5,0,0,0,.91-.627,4.9,4.9,0,0,0,.876-1.019,8.942,8.942,0,0,0,.512-1.144c.156-.415.279-.7.358-.875" transform="translate(-316.378 -59.684)"/>
      </g>
      <g id="g3823" transform="translate(61.62 0)">
        <path id="path3825" d="M342.543,63.816a10.383,10.383,0,0,0,2.055-.481c.11-.071.166-.232.166-.487l-.015-1,.015-1.767-.032-4.509.017-1.678V52.7l.047-1.464c0-2.3-.027-3.671-.067-4.121a1.375,1.375,0,0,0-.269-.839,5.235,5.235,0,0,0-2.009-.723v-.075a2.236,2.236,0,0,1,.03-.3c.141-.021.281-.046.41-.078a2.293,2.293,0,0,1,.377-.062,11.788,11.788,0,0,0,2.631-1.01h.745c.021.285.032,1.175.032,2.684l-.016,1.924.016,2.484-.061,3.06c0,.183.01.383.03.607a14.118,14.118,0,0,1,1.4-1.481,7,7,0,0,1,1.688-1.016,4.87,4.87,0,0,1,1.883-.37,3.665,3.665,0,0,1,3.06,1.578,4.353,4.353,0,0,1,.684,2.625l-.047,1.549.016.864-.062,1.5c-.042,1.248-.063,1.982-.063,2.217,0,.264.01.614.031,1.06l.849.2a13.331,13.331,0,0,1,1.31.337l-.015.465-3.205-.092c-.181,0-.674.02-1.48.06-.492.022-.776.032-.855.032h-.331a.462.462,0,0,1-.077-.222v-.135a1.226,1.226,0,0,1,.793-.357l.909-.213a.558.558,0,0,0,.213-.314c.041-.265.083-1.576.135-3.921l.031-1.123a9.735,9.735,0,0,0-.274-2.951,2.147,2.147,0,0,0-.968-1.285,3.192,3.192,0,0,0-1.741-.476,3.54,3.54,0,0,0-1.552.347,6.048,6.048,0,0,0-1.2.894,5.4,5.4,0,0,0-.978,1.093,2.062,2.062,0,0,0-.18,1l.015,1.055-.031,1.1c0,.087.016.718.046,1.89l-.015.961.03,1.062a1.727,1.727,0,0,0,.047.333l2.128.511a3.943,3.943,0,0,1,.5.193l.046.175a.757.757,0,0,1-.077.253c-.289.01-.513.016-.662.016l-1.185-.016-2.609.033-1.952.031c-.1-.011-.254-.02-.456-.031l-.016-.105a.574.574,0,0,1,.124-.3" transform="translate(-342.419 -44.028)"/>
      </g>
      <g id="g3827" transform="translate(77.597 0.559)">
        <path id="path3829" d="M390.435,45.94a2.7,2.7,0,0,1,.348-.047c.341,0,.905.033,1.7.1.414.017.695.027.844.027.222,0,.694-.022,1.413-.064l2.574-.155c.677-.061,1.464-.093,2.366-.093a8.837,8.837,0,0,1,3.784.679,4.732,4.732,0,0,1,2.175,2.111,6.059,6.059,0,0,1,.765,2.869,5.7,5.7,0,0,1-1.667,4.106,5.941,5.941,0,0,1-4.488,1.728,4.506,4.506,0,0,1-1.319-.16,4.554,4.554,0,0,1-1.217-.616.787.787,0,0,1-.348-.41.383.383,0,0,1,.165-.149,1.142,1.142,0,0,1,.441.094,3.928,3.928,0,0,0,1.3.183,4.634,4.634,0,0,0,2.267-.589,3.912,3.912,0,0,0,1.616-1.687,5.1,5.1,0,0,0,.544-2.309,4.964,4.964,0,0,0-.574-2.3,4.874,4.874,0,0,0-1.512-1.785,4.623,4.623,0,0,0-1.62-.637,8.066,8.066,0,0,0-1.7-.262,4.976,4.976,0,0,0-2.221.276l-.016.214.046,1.714-.016.3c-.02.274-.03.7-.03,1.259q0,3.1.088,3.856v.85l.192,6.943c0,.1-.011.283-.038.558s-.041.513-.041.716a3.718,3.718,0,0,0,.125,1.107c.236.073.947.238,2.112.5.544.128.839.2.891.224a.433.433,0,0,1,.211.194.524.524,0,0,1-.159.293.732.732,0,0,1-.384.066c-.119,0-.4-.026-.849-.078a19.777,19.777,0,0,0-2.04-.14l-2.661.14-1.59-.057c-.1,0-.393.016-.876.041l-.014-.4,1.962-.379a1.328,1.328,0,0,0,.591-.274,1.631,1.631,0,0,0,.149-.838c0-.088.006-.289.016-.59.009-.212.014-.507.014-.886q0-1.793-.134-7.646-.055-2.736-.052-5.561V48.72c0-.73-.114-1.192-.337-1.382a6.2,6.2,0,0,0-2.816-.824.714.714,0,0,1-.079-.279.644.644,0,0,1,.093-.3" transform="translate(-390.342 -45.706)"/>
      </g>
      <g id="g3831" transform="translate(94.414 7.767)">
        <path id="path3833" d="M447.488,79.564a4.375,4.375,0,0,0,2.226-.621,4.3,4.3,0,0,0,1.709-1.994,7.458,7.458,0,0,0,.637-3.174,9.328,9.328,0,0,0-.493-2.738,4.565,4.565,0,0,0-1.521-2.339,3.848,3.848,0,0,0-2.409-.781,4.914,4.914,0,0,0-2.04.469,3.9,3.9,0,0,0-1.765,1.8,8.09,8.09,0,0,0-.719,3.786,6.131,6.131,0,0,0,1.252,4.172,3.988,3.988,0,0,0,3.122,1.419m-6.7-5.909a6.471,6.471,0,0,1,.43-2.2,6.52,6.52,0,0,1,3.174-3.49,8.017,8.017,0,0,1,3.364-.637,6.55,6.55,0,0,1,6.638,6.606,5.824,5.824,0,0,1-1.993,4.322,7,7,0,0,1-5.038,1.9,6.861,6.861,0,0,1-3.547-.982,6.394,6.394,0,0,1-2.132-2.195,6.234,6.234,0,0,1-.9-3.321" transform="translate(-440.784 -67.324)"/>
      </g>
      <g id="g3835" transform="translate(109.148 0.311)">
        <path id="path3837" d="M485.85,54.063l.015-.453a10.588,10.588,0,0,0,1.078-.335,4.836,4.836,0,0,0,1.165-.746,5.252,5.252,0,0,0,1.026-1.123,1.855,1.855,0,0,1,.29-.032l.185.015c.043.489.062.846.062,1.067,0,.047-.01.276-.03.685v.8l.016,4.382-.047,4.64a1.166,1.166,0,0,0,.182.785,2.894,2.894,0,0,0,1.164.491c.405.116.7.209.907.29a.474.474,0,0,1,.045.182.458.458,0,0,1-.077.223c-.394-.01-.907-.036-1.523-.077-.848-.072-1.408-.109-1.683-.109q-.193,0-2.437.062c-.306.01-.6.032-.886.063a.841.841,0,0,1-.243-.053.384.384,0,0,1-.078-.2.413.413,0,0,1,.291-.369c.041-.019.553-.135,1.548-.346a.96.96,0,0,0,.637-.3,1.607,1.607,0,0,0,.259-1.01q.03-1.155.03-6.351a5.211,5.211,0,0,0-.092-1.295,1.164,1.164,0,0,0-.4-.409,4.411,4.411,0,0,0-1.4-.476m1.306-7.881a1.15,1.15,0,0,1,.382-.859,1.289,1.289,0,0,1,.922-.363,1.356,1.356,0,0,1,.978.41,1.2,1.2,0,0,1,.42.869,1.235,1.235,0,0,1-.42.884,1.357,1.357,0,0,1-.978.416,1.248,1.248,0,0,1-.927-.378,1.305,1.305,0,0,1-.377-.979" transform="translate(-484.98 -44.96)"/>
      </g>
      <g id="g3839" transform="translate(116.805 7.393)">
        <path id="path3841" d="M508,78.508a6.309,6.309,0,0,1,.876-.183A2.651,2.651,0,0,0,510.015,78a1.242,1.242,0,0,0,.186-.832l.031-.549c.011-.2.016-.461.016-.777l-.032-4.663a2.034,2.034,0,0,0-.243-1.218,2.652,2.652,0,0,0-1.512-.591V68.83a4.464,4.464,0,0,0,1.673-.785,5.354,5.354,0,0,0,1.434-1.84l.528.018c.031.481.047.821.047,1.024V68.26l.016.276c.118-.078.263-.182.424-.3a9.5,9.5,0,0,1,1.875-1.119,8.845,8.845,0,0,1,1.708-.6,4.177,4.177,0,0,1,1.067-.124,3.489,3.489,0,0,1,2.143.668,3.021,3.021,0,0,1,1.166,1.574,15.2,15.2,0,0,1,.269,3.6v2.292c0,.064-.011.265-.026.607s-.022.74-.022,1.185a5.831,5.831,0,0,0,.095,1.357.892.892,0,0,0,.388.395,3.525,3.525,0,0,1,1.694.471v.119a1.037,1.037,0,0,1-.093.379h-.29L520.547,79l-1.984.047c-.729.019-1.408.014-2.025-.015l-.092-.353a.611.611,0,0,1,.1-.269,3.8,3.8,0,0,1,1.155-.244,2.533,2.533,0,0,0,.606-.089,1.858,1.858,0,0,0,.409-.241,1.476,1.476,0,0,0,.18-.606c0-.072-.01-.212-.03-.425-.031-.463-.053-1.615-.062-3.463v-.787l.031-1.213a3.652,3.652,0,0,0-.787-2.691,2.949,2.949,0,0,0-2.106-.739,4.662,4.662,0,0,0-1.984.449,6.69,6.69,0,0,0-1.879,1.34c-.021.487-.032.9-.032,1.242l.047,3.345c0,1.752.026,2.817.077,3.209a.713.713,0,0,0,.1.339,1.11,1.11,0,0,0,.487.2c.244.045.522.119.838.211s.529.148.632.167a.575.575,0,0,1,.409.312l-.015.31h-1.584L509.792,79H507.98l-.031-.2a1.4,1.4,0,0,1,.047-.3" transform="translate(-507.949 -66.205)"/>
      </g>
      <g id="g3843" transform="translate(132.955 5.219)">
        <path id="path3845" d="M559.837,59.684l.467.015.061,1.435-.032,1.858c.2.011.322.015.373.015.269,0,.777-.021,1.533-.061.481-.032.948-.047,1.393-.047.206,0,.512,0,.926.015.021.2.032.357.032.471a3.186,3.186,0,0,1-.093.607h-.264l-2.386.072-1.186.031-.279.03a2.818,2.818,0,0,0-.124.882l.048,2.283-.033,4.018a3.662,3.662,0,0,0,.414,2.1,1.417,1.417,0,0,0,1.206.533A8.921,8.921,0,0,0,563.4,73.7a2.845,2.845,0,0,0,.912-.5h.134a.315.315,0,0,1,.228.083.321.321,0,0,1,.082.22l-.015.106a3.955,3.955,0,0,1-1.5,1.036,6.326,6.326,0,0,1-2.248.327,2.766,2.766,0,0,1-1.636-.456,2.032,2.032,0,0,1-.828-1.082,12.1,12.1,0,0,1-.188-2.725l.063-3.419-.016-1.648v-.611c0-.28-.01-.564-.03-.85l-.259-.014-1.254.041-.123.014a.376.376,0,0,1-.254-.072.217.217,0,0,1-.083-.174.365.365,0,0,1,.114-.281,2.782,2.782,0,0,1,.678-.341,3.54,3.54,0,0,0,.91-.627,4.911,4.911,0,0,0,.876-1.019,9,9,0,0,0,.513-1.144c.155-.415.279-.7.357-.875" transform="translate(-556.389 -59.684)"/>
      </g>
    </g>
  </g>
</svg>
